<svg width="34" height="25" viewBox="0 0 34 25" fill="none" xmlns="http://www.w3.org/2000/svg">
<path d="M6.85907 2.85602C7.92307 2.85602 8.86573 3.02402 9.68707 3.36002C10.5271 3.67735 11.1804 4.12535 11.6471 4.70402C12.1137 5.28269 12.3471 5.97335 12.3471 6.77602C12.3471 7.78402 11.9737 8.66135 11.2271 9.40802C10.4991 10.136 9.48173 10.8267 8.17507 11.48L7.95107 11.088C8.24973 10.7147 8.48307 10.2947 8.65107 9.82802C8.81907 9.36135 8.93107 8.87602 8.98707 8.37202C9.06173 7.86802 9.09907 7.41069 9.09907 7.00002C9.09907 5.86135 8.87507 4.97469 8.42707 4.34002C7.99773 3.68669 7.4004 3.36002 6.63507 3.36002C6.0004 3.36002 5.50573 3.57469 5.15107 4.00402C4.7964 4.43335 4.61907 4.99335 4.61907 5.68402C4.61907 6.48669 4.8244 7.23335 5.23507 7.92402C5.6644 8.61469 6.20573 9.26802 6.85907 9.88402C7.53107 10.5 8.2404 11.116 8.98707 11.732C9.73373 12.348 10.4337 12.9827 11.0871 13.636C11.7591 14.2894 12.3004 14.9894 12.7111 15.736C13.1404 16.464 13.3551 17.276 13.3551 18.172C13.3551 19.2174 13.0564 20.132 12.4591 20.916C11.8617 21.7 11.0497 22.3254 10.0231 22.792C8.9964 23.24 7.8204 23.464 6.49507 23.464C5.33773 23.464 4.2644 23.2867 3.27507 22.932C2.28573 22.5774 1.4924 22.0454 0.895067 21.336C0.297734 20.608 -0.000933126 19.7214 -0.000933126 18.676C-0.000933126 17.78 0.213734 16.9867 0.643067 16.296C1.0724 15.5867 1.65107 14.9707 2.37907 14.448C3.12573 13.9254 3.9564 13.4774 4.87107 13.104L5.09507 13.496C4.47907 14.112 4.04973 14.8307 3.80707 15.652C3.58307 16.4734 3.47107 17.3134 3.47107 18.172C3.47107 19.0307 3.5644 19.824 3.75107 20.552C3.9564 21.28 4.2924 21.868 4.75907 22.316C5.22573 22.7454 5.85107 22.96 6.63507 22.96C7.53107 22.96 8.22173 22.68 8.70707 22.12C9.21107 21.56 9.46307 20.832 9.46307 19.936C9.46307 19.0774 9.25773 18.3027 8.84707 17.612C8.4364 16.9027 7.9044 16.24 7.25107 15.624C6.6164 14.9894 5.92573 14.3734 5.17907 13.776C4.45107 13.1787 3.7604 12.572 3.10707 11.956C2.4724 11.3214 1.94973 10.64 1.53907 9.91202C1.1284 9.16535 0.923067 8.33469 0.923067 7.42002C0.923067 6.39335 1.19373 5.54402 1.73507 4.87202C2.29507 4.20002 3.02307 3.69602 3.91907 3.36002C4.83373 3.02402 5.81373 2.85602 6.85907 2.85602ZM19.9742 1.76402C21.3182 1.76402 22.4102 2.16535 23.2502 2.96802C24.0902 3.77069 24.5102 4.89069 24.5102 6.32802C24.5102 7.26135 24.3142 8.08269 23.9222 8.79202C23.5302 9.50135 22.9888 10.052 22.2982 10.444C21.6262 10.836 20.8515 11.032 19.9742 11.032C18.6302 11.032 17.5288 10.6307 16.6702 9.82802C15.8302 9.02535 15.4102 7.90535 15.4102 6.46802C15.4102 5.53469 15.6062 4.71335 15.9982 4.00402C16.4088 3.29469 16.9502 2.74402 17.6222 2.35202C18.3128 1.96002 19.0968 1.76402 19.9742 1.76402ZM29.3262 14.7C28.7288 14.7 28.2715 15.0547 27.9542 15.764C27.6555 16.4734 27.5062 17.5094 27.5062 18.872C27.5062 20.2347 27.6742 21.2614 28.0102 21.952C28.3648 22.624 28.8408 22.96 29.4382 22.96C30.0542 22.96 30.5022 22.6054 30.7822 21.896C31.0808 21.1867 31.2302 20.16 31.2302 18.816C31.2302 17.4347 31.0622 16.408 30.7262 15.736C30.3902 15.0454 29.9235 14.7 29.3262 14.7ZM29.3822 14.196C30.7262 14.196 31.8182 14.5974 32.6582 15.4C33.4982 16.2027 33.9182 17.3227 33.9182 18.76C33.9182 19.6934 33.7222 20.5147 33.3302 21.224C32.9382 21.9334 32.3968 22.484 31.7062 22.876C31.0342 23.268 30.2595 23.464 29.3822 23.464C28.0382 23.464 26.9368 23.0627 26.0782 22.26C25.2382 21.4574 24.8182 20.3374 24.8182 18.9C24.8182 17.9667 25.0142 17.1454 25.4062 16.436C25.8168 15.7267 26.3582 15.176 27.0302 14.784C27.7208 14.392 28.5048 14.196 29.3822 14.196ZM19.9182 2.26802C19.3208 2.26802 18.8635 2.62269 18.5462 3.33202C18.2475 4.04135 18.0982 5.07735 18.0982 6.44002C18.0982 7.80269 18.2662 8.82935 18.6022 9.52002C18.9568 10.192 19.4328 10.528 20.0302 10.528C20.6462 10.528 21.0942 10.1734 21.3742 9.46402C21.6728 8.75469 21.8222 7.72802 21.8222 6.38402C21.8222 5.00269 21.6542 3.97602 21.3182 3.30402C20.9822 2.61335 20.5155 2.26802 19.9182 2.26802ZM32.7422 1.97887e-05L33.2742 0.36402L16.8942 24.612L16.3622 24.248L32.7422 1.97887e-05Z" fill="#2E5A66"/>
</svg>
