<svg width="50" height="28" viewBox="0 0 50 28" fill="none" xmlns="http://www.w3.org/2000/svg">
<path d="M-0.000237465 8.48402C0.167763 8.52135 0.475763 8.54935 0.923763 8.56802C1.37176 8.58669 1.8851 8.60535 2.46376 8.62402C3.04243 8.62402 3.61176 8.62402 4.17176 8.62402H12.0678V9.21202C11.7131 10.052 11.2558 10.9574 10.6958 11.928C10.1544 12.88 9.60376 13.9254 9.04376 15.064C8.50243 16.184 8.0451 17.3974 7.67176 18.704C7.3171 19.992 7.13976 21.392 7.13976 22.904C7.13976 23.016 7.1491 23.2214 7.16776 23.52C7.2051 23.8187 7.2331 24.1174 7.25176 24.416C7.27043 24.7334 7.27976 24.9854 7.27976 25.172C7.27976 25.6947 7.11176 26.1614 6.77576 26.572C6.43976 27.0014 5.92643 27.216 5.23576 27.216C4.5451 27.216 4.03176 26.9827 3.69576 26.516C3.35976 26.0494 3.19176 25.4614 3.19176 24.752C3.19176 23.7254 3.37843 22.708 3.75176 21.7C4.1251 20.692 4.61043 19.7027 5.20776 18.732C5.8051 17.7427 6.4491 16.7814 7.13976 15.848C7.83043 14.9147 8.50243 14.0187 9.15576 13.16C9.82776 12.3014 10.4064 11.4894 10.8918 10.724L10.2478 12.012H2.57576C1.81043 12.012 1.3251 12.1054 1.11976 12.292C0.914429 12.4787 0.774429 12.8054 0.699762 13.272H0.111763C0.111763 12.04 0.102429 11.0694 0.0837625 10.36C0.0650958 9.63202 0.0370958 9.00669 -0.000237465 8.48402ZM21.2778 8.20402C22.7711 8.20402 24.0871 8.51202 25.2258 9.12802C26.3644 9.72535 27.2604 10.584 27.9137 11.704C28.5671 12.8054 28.8938 14.1027 28.8938 15.596C28.8938 17.0894 28.5578 18.4334 27.8858 19.628C27.2324 20.804 26.3084 21.7374 25.1138 22.428C23.9378 23.1187 22.5564 23.464 20.9698 23.464C19.5138 23.464 18.2071 23.156 17.0498 22.54C15.9111 21.924 15.0058 21.0654 14.3338 19.964C13.6804 18.844 13.3538 17.5374 13.3538 16.044C13.3538 14.5694 13.6804 13.244 14.3338 12.068C14.9871 10.8734 15.9111 9.93069 17.1058 9.24002C18.3004 8.54935 19.6911 8.20402 21.2778 8.20402ZM21.0258 8.70802C20.0178 8.70802 19.1871 9.35202 18.5338 10.64C17.8991 11.9094 17.5818 13.6827 17.5818 15.96C17.5818 17.64 17.7498 18.9934 18.0858 20.02C18.4218 21.0467 18.8604 21.7934 19.4018 22.26C19.9618 22.7267 20.5684 22.96 21.2218 22.96C22.2298 22.96 23.0511 22.316 23.6858 21.028C24.3391 19.74 24.6658 17.9574 24.6658 15.68C24.6658 14 24.4978 12.6467 24.1618 11.62C23.8258 10.5934 23.3778 9.85602 22.8178 9.40802C22.2764 8.94135 21.6791 8.70802 21.0258 8.70802ZM35.6244 1.76402C36.9684 1.76402 38.0604 2.16535 38.9004 2.96802C39.7404 3.77069 40.1604 4.89069 40.1604 6.32802C40.1604 7.26135 39.9644 8.08269 39.5724 8.79202C39.1804 9.50135 38.6391 10.052 37.9484 10.444C37.2764 10.836 36.5018 11.032 35.6244 11.032C34.2804 11.032 33.1791 10.6307 32.3204 9.82802C31.4804 9.02535 31.0604 7.90535 31.0604 6.46802C31.0604 5.53469 31.2564 4.71335 31.6484 4.00402C32.0591 3.29469 32.6004 2.74402 33.2724 2.35202C33.9631 1.96002 34.7471 1.76402 35.6244 1.76402ZM44.9764 14.7C44.3791 14.7 43.9218 15.0547 43.6044 15.764C43.3058 16.4734 43.1564 17.5094 43.1564 18.872C43.1564 20.2347 43.3244 21.2614 43.6604 21.952C44.0151 22.624 44.4911 22.96 45.0884 22.96C45.7044 22.96 46.1524 22.6054 46.4324 21.896C46.7311 21.1867 46.8804 20.16 46.8804 18.816C46.8804 17.4347 46.7124 16.408 46.3764 15.736C46.0404 15.0454 45.5738 14.7 44.9764 14.7ZM45.0324 14.196C46.3764 14.196 47.4684 14.5974 48.3084 15.4C49.1484 16.2027 49.5684 17.3227 49.5684 18.76C49.5684 19.6934 49.3724 20.5147 48.9804 21.224C48.5884 21.9334 48.0471 22.484 47.3564 22.876C46.6844 23.268 45.9098 23.464 45.0324 23.464C43.6884 23.464 42.5871 23.0627 41.7284 22.26C40.8884 21.4574 40.4684 20.3374 40.4684 18.9C40.4684 17.9667 40.6644 17.1454 41.0564 16.436C41.4671 15.7267 42.0084 15.176 42.6804 14.784C43.3711 14.392 44.1551 14.196 45.0324 14.196ZM35.5684 2.26802C34.9711 2.26802 34.5138 2.62269 34.1964 3.33202C33.8978 4.04135 33.7484 5.07735 33.7484 6.44002C33.7484 7.80269 33.9164 8.82935 34.2524 9.52002C34.6071 10.192 35.0831 10.528 35.6804 10.528C36.2964 10.528 36.7444 10.1734 37.0244 9.46402C37.3231 8.75469 37.4724 7.72802 37.4724 6.38402C37.4724 5.00269 37.3044 3.97602 36.9684 3.30402C36.6324 2.61335 36.1658 2.26802 35.5684 2.26802ZM48.3924 1.97887e-05L48.9244 0.36402L32.5444 24.612L32.0124 24.248L48.3924 1.97887e-05Z" fill="#2E5A66"/>
</svg>
