<svg width="40" height="40" viewBox="0 0 40 40" fill="none" xmlns="http://www.w3.org/2000/svg">
<path d="M31.7108 10.5636C26.4396 11.721 10.6712 15.7272 7.8663 16.4381L4.42639 12.7517C4.27445 12.5863 4.05458 12.4997 3.83018 12.5188L1.69728 12.6468C1.48034 12.6672 1.27767 12.7742 1.14499 12.955C1.01232 13.1359 0.969815 13.364 1.02112 13.5791L2.51687 19.5682C2.80514 20.7182 3.62466 21.6323 4.70288 22.0159C5.66012 22.3541 7.25602 22.6971 9.3997 22.3884C12.1678 21.9981 16.3745 21.2819 18.475 20.9194L14.6961 31.027C14.5952 31.2823 14.6549 31.5752 14.8294 31.7828C14.9427 31.9105 15.0949 31.9922 15.2568 32.0223C15.3598 32.0415 15.4596 32.0373 15.5621 32.0183L17.2482 31.6319C18.2507 31.3999 19.1297 30.8099 19.7205 29.9683L27.5825 18.7864C29.0094 18.4431 35.2954 16.8656 38.0582 15.1952C38.5214 14.916 38.8528 14.4448 38.9602 13.909C39.069 13.3658 38.953 12.8036 38.6329 12.3557C37.8643 11.2912 35.9486 9.63999 31.7108 10.5636Z" fill="url(#paint0_linear_5699_18080)"/>
<path d="M11.2151 8.18409L9.80454 8.64455C9.5545 8.71984 9.37085 8.92924 9.3081 9.18406C9.24541 9.43889 9.32532 9.70495 9.51864 9.89327L13.2647 13.5301C16.1399 12.8095 18.5923 12.1928 20.6833 11.6763L14.7279 8.49587C13.6546 7.92286 12.3743 7.80616 11.2151 8.18409Z" fill="url(#paint1_linear_5699_18080)"/>
<defs>
<linearGradient id="paint0_linear_5699_18080" x1="1" y1="10.293" x2="19.7434" y2="43.0525" gradientUnits="userSpaceOnUse">
<stop stop-color="#1A3D4F"/>
<stop offset="1" stop-color="#1D6E72"/>
</linearGradient>
<linearGradient id="paint1_linear_5699_18080" x1="9.28711" y1="7.96533" x2="13.6754" y2="16.9521" gradientUnits="userSpaceOnUse">
<stop stop-color="#1A3D4F"/>
<stop offset="1" stop-color="#1D6E72"/>
</linearGradient>
</defs>
</svg>
