<svg width="20" height="20" viewBox="0 0 20 20" fill="none" xmlns="http://www.w3.org/2000/svg">
<path d="M9.79726 12.3582C9.64603 12.3582 9.49614 12.2919 9.39426 12.1646C9.21634 11.9422 9.25243 11.6178 9.47483 11.4399L11.7159 9.64693C11.9381 9.46951 12.2629 9.50526 12.4407 9.72749C12.6186 9.94989 12.5825 10.2743 12.3601 10.4523L10.119 12.2452C10.024 12.3212 9.91022 12.3582 9.79726 12.3582Z" fill="#2E5A66"/>
<path d="M12.0377 12.3582C11.9247 12.3582 11.8109 12.3212 11.7159 12.2452L9.47483 10.4523C9.25243 10.2743 9.21634 9.94989 9.39426 9.72749C9.57235 9.50527 9.89696 9.46951 10.119 9.64692L12.3601 11.4399C12.5825 11.6178 12.6186 11.9422 12.4407 12.1646C12.3388 12.2919 12.1889 12.3582 12.0377 12.3582Z" fill="#2E5A66"/>
<path d="M6.70284 12.3582C6.58988 12.3582 6.47608 12.3212 6.38108 12.2452L4.13999 10.4523C3.91759 10.2743 3.88151 9.94989 4.05942 9.72749C4.23751 9.50527 4.56212 9.46951 4.78418 9.64692L7.02527 11.4399C7.24767 11.6178 7.28375 11.9422 7.10584 12.1646C7.00395 12.2919 6.85407 12.3582 6.70284 12.3582Z" fill="#2E5A66"/>
<path d="M4.46242 12.3582C4.31119 12.3582 4.1613 12.2919 4.05942 12.1646C3.8815 11.9422 3.91759 11.6178 4.13999 11.4399L6.38108 9.64693C6.60331 9.46951 6.92809 9.50526 7.10584 9.72749C7.28376 9.94989 7.24767 10.2743 7.02527 10.4523L4.78418 12.2452C4.68918 12.3212 4.57538 12.3582 4.46242 12.3582Z" fill="#2E5A66"/>
<path d="M11.7935 4.98503C11.7138 4.98503 11.6327 4.9664 11.5569 4.92712C10.5298 4.39522 9.41717 4.12549 8.24996 4.12549C8.09571 4.12549 7.94247 4.13036 7.79073 4.13992C7.5022 4.15419 7.26168 3.94186 7.24372 3.6577C7.22576 3.37354 7.44178 3.12865 7.72594 3.11069C7.89916 3.09978 8.07389 3.09424 8.24996 3.09424C9.58384 3.09424 10.8559 3.40274 12.0312 4.01135C12.284 4.14227 12.3828 4.45346 12.2519 4.7064C12.1603 4.88348 11.9802 4.98503 11.7935 4.98503Z" fill="#2E5A66"/>
<path d="M2.91211 6.2617C2.77615 6.2617 2.64036 6.20816 2.53899 6.10191C2.34244 5.89579 2.35016 5.5695 2.55627 5.37295C3.46617 4.50518 4.57799 3.84806 5.77155 3.47259C6.04463 3.38783 6.33282 3.53839 6.41826 3.80979C6.50353 4.08154 6.35263 4.37107 6.08105 4.45651C5.03705 4.78465 4.06438 5.35969 3.26795 6.1192C3.16808 6.21437 3.04001 6.2617 2.91211 6.2617Z" fill="#2E5A66"/>
<path d="M8.25 19.5942C3.70102 19.5942 0 15.8932 0 11.3442C0 9.70332 0.480377 8.11817 1.3891 6.76013C1.54738 6.52346 1.86763 6.46002 2.10446 6.61846C2.34113 6.77691 2.40457 7.09716 2.24612 7.33383C1.45137 8.52134 1.03125 9.90809 1.03125 11.3442C1.03125 15.3247 4.26952 18.5629 8.25 18.5629C12.2305 18.5629 15.4688 15.3247 15.4688 11.3442C15.4688 11.0756 15.454 10.8056 15.4248 10.5415C15.3934 10.2586 15.5975 10.0036 15.8805 9.97237C16.163 9.94082 16.4184 10.1451 16.4496 10.4281C16.483 10.7297 16.5 11.0379 16.5 11.3442C16.5 15.8932 12.799 19.5942 8.25 19.5942Z" fill="#2E5A66"/>
<path d="M8.25 17.5317C6.87164 17.5317 5.15625 17.5317 5.15625 16.0364C5.15625 14.8668 6.48476 13.063 8.25 13.063C10.0152 13.063 11.3438 14.8668 11.3438 16.0364C11.3438 17.5317 9.62836 17.5317 8.25 17.5317ZM8.25 14.0942C7.12123 14.0942 6.1875 15.3801 6.1875 16.0364C6.1875 16.431 6.85251 16.5005 8.25 16.5005C9.64749 16.5005 10.3125 16.431 10.3125 16.0364C10.3125 15.3801 9.37877 14.0942 8.25 14.0942Z" fill="#2E5A66"/>
<path d="M3.95351 7.56278C3.80228 7.56278 3.65239 7.49665 3.55051 7.36925L0.800509 3.93175C0.703327 3.81023 0.666233 3.65111 0.699632 3.49904C0.732866 3.34697 0.833237 3.21807 0.972552 3.14841L2.51255 2.3785L1.46166 0.80191C1.30371 0.564912 1.36766 0.244826 1.60466 0.0868829C1.84149 -0.0715652 2.16175 -0.00711201 2.31969 0.22989L3.69452 2.29239C3.7766 2.41542 3.80178 2.56783 3.76384 2.71083C3.72591 2.85367 3.62839 2.97351 3.49613 3.03964L2.00431 3.78555L4.35584 6.72505C4.53376 6.94745 4.49767 7.2719 4.27527 7.44982C4.18027 7.52585 4.06647 7.56278 3.95351 7.56278Z" fill="#2E5A66"/>
<path d="M7.39134 6.53174C7.36516 6.53174 7.33881 6.5299 7.31229 6.5257C7.03081 6.48239 6.83778 6.21921 6.88109 5.93773L7.43129 2.36142L6.55094 2.71356C6.39249 2.77735 6.21239 2.75788 6.07039 2.66187C5.92873 2.56586 5.8438 2.40607 5.8438 2.23486L5.84363 0.516113C5.84363 0.231447 6.07442 0.000488281 6.35925 0.000488281C6.64392 0.000488281 6.87488 0.231279 6.87488 0.516113L6.87505 1.47334L7.88666 1.06866C8.05803 0.99968 8.25391 1.02838 8.39892 1.14369C8.54395 1.25883 8.61595 1.44279 8.58775 1.62575L7.90025 6.09449C7.86114 6.34945 7.64143 6.53174 7.39134 6.53174Z" fill="#2E5A66"/>
<path d="M4.64027 2.4068C4.40915 2.4068 4.199 2.25037 4.14043 2.01605L3.79668 0.641053C3.72752 0.364778 3.89554 0.0848104 4.17181 0.0158232C4.44859 -0.0541677 4.72789 0.114686 4.79704 0.390961L5.14079 1.76596C5.20995 2.04224 5.04193 2.3222 4.76565 2.39119C4.72369 2.40176 4.68156 2.4068 4.64027 2.4068Z" fill="#2E5A66"/>
<path d="M9.79667 2.7505C9.73289 2.7505 9.6681 2.73858 9.60533 2.7134C9.34097 2.60766 9.2124 2.30755 9.31814 2.04319L10.0056 0.324442C10.1112 0.0600846 10.412 -0.0684882 10.6759 0.0372561C10.9402 0.143 11.0688 0.443108 10.963 0.707469L10.2755 2.42622C10.195 2.6278 10.0013 2.7505 9.79667 2.7505Z" fill="#2E5A66"/>
<path d="M18.0454 8.93799H11.2976C10.7384 8.93799 10.2375 8.64879 9.95787 8.16455C9.6784 7.68015 9.6784 7.10191 9.95804 6.61768L13.3319 0.773926C13.6116 0.289689 14.1122 0.000488281 14.6715 0.000488281C15.2308 0.000488281 15.7315 0.289689 16.0111 0.773926L19.385 6.61768C19.6646 7.10191 19.6646 7.68015 19.385 8.16455C19.1053 8.64879 18.6047 8.93799 18.0454 8.93799ZM14.2249 1.28955L10.851 7.1333C10.7167 7.36594 10.8063 7.57138 10.851 7.64893C10.8958 7.72647 11.0289 7.90674 11.2976 7.90674H18.0454C18.3141 7.90674 18.4472 7.72647 18.492 7.64893C18.5367 7.57138 18.6263 7.36594 18.492 7.1333L15.1181 1.28955C14.9837 1.05691 14.761 1.03174 14.6715 1.03174C14.582 1.03174 14.3593 1.05691 14.2249 1.28955Z" fill="#2E5A66"/>
<path d="M14.6714 6.07739C14.9558 6.07739 15.187 6.30829 15.187 6.59268V6.87534C15.187 7.15992 14.956 7.39096 14.6714 7.39096C14.387 7.39096 14.1558 7.16007 14.1558 6.87567V6.59302C14.1558 6.30844 14.3868 6.07739 14.6714 6.07739Z" fill="#2E5A66"/>
<path d="M14.6715 5.50049C14.3867 5.50049 14.1559 5.2697 14.1559 4.98486V2.92236C14.1559 2.63753 14.3867 2.40674 14.6715 2.40674C14.9563 2.40674 15.1871 2.63753 15.1871 2.92236V4.98486C15.1871 5.2697 14.9563 5.50049 14.6715 5.50049Z" fill="#2E5A66"/>
</svg>
